<svg width="140" height="21" viewBox="0 0 140 21" fill="none" xmlns="http://www.w3.org/2000/svg">
<path d="M3.87291 20.4307C1.61921 21.7325 0.000244141 20.6477 0.000244141 18.7181C0.000244141 16.664 0.000244141 10.5005 0.000244141 10.5005C0.000244141 10.5005 0.000244141 4.33711 0.000244141 2.28297C0.000244141 0.353385 1.61821 -0.731443 3.87291 0.57035C7.38302 2.59737 17.9123 8.68044 17.9123 8.68044C19.3124 9.48904 19.3124 11.511 17.9123 12.3196C17.9123 12.3206 7.38302 18.4037 3.87291 20.4307Z" fill="#00C1FF"/>
<path d="M15.462 20.4293C13.2083 21.7311 11.5894 20.6462 11.5894 18.7166C11.5894 16.6625 11.5894 10.4991 11.5894 10.4991C11.5894 10.4991 11.5894 4.33565 11.5894 2.28151C11.5894 0.35192 13.2073 -0.732908 15.462 0.568885C18.8948 2.55171 29.1931 8.50118 29.1931 8.50118C30.7308 9.38914 30.7308 11.609 29.1931 12.497C29.1921 12.497 18.8948 18.4464 15.462 20.4293Z" fill="#BCEC30"/>
<mask id="mask0_6_2059" style="mask-type:alpha" maskUnits="userSpaceOnUse" x="11" y="0" width="20" height="21">
<path d="M15.462 20.4293C13.2083 21.7311 11.5894 20.6462 11.5894 18.7166C11.5894 16.6625 11.5894 10.4991 11.5894 10.4991C11.5894 10.4991 11.5894 4.33565 11.5894 2.28151C11.5894 0.35192 13.2073 -0.732908 15.462 0.568885C18.8948 2.55171 29.1931 8.50118 29.1931 8.50118C30.7308 9.38914 30.7308 11.609 29.1931 12.497C29.1921 12.497 18.8948 18.4464 15.462 20.4293Z" fill="#6FE4FF"/>
</mask>
<g mask="url(#mask0_6_2059)">
<g filter="url(#filter0_f_6_2059)">
<path d="M3.87328 20.4307C1.61958 21.7325 0.000610352 20.6477 0.000610352 18.7181C0.000610352 16.664 0.000610352 10.5005 0.000610352 10.5005C0.000610352 10.5005 0.000610352 4.33711 0.000610352 2.28297C0.000610352 0.353385 1.61857 -0.731443 3.87328 0.57035C7.38339 2.59737 17.9127 8.68044 17.9127 8.68044C19.3127 9.48904 19.3127 11.511 17.9127 12.3196C17.9127 12.3206 7.38339 18.4037 3.87328 20.4307Z" fill="#99D100"/>
</g>
</g>
<path d="M37.6903 14.1675L38.0829 13.2735C38.3506 12.6656 38.8324 12.5047 39.4391 12.9517C40.5991 13.8099 42.5086 14.4357 45.0606 14.4357C47.2378 14.4357 48.1658 13.8814 48.1658 13.2199C48.1658 12.4689 47.3984 12.2722 46.1313 12.1113L43.2403 11.7358C39.7604 11.271 38.0115 10.0194 38.0115 7.83801C38.0115 5.49574 39.921 3.63623 44.3468 3.63623C46.8095 3.63623 48.3978 4.01171 49.4328 4.40507C50.5749 4.85206 50.7356 5.22754 50.7356 6.1573V7.37313C50.7356 8.12409 50.4679 8.37441 49.7362 8.37441H48.9153C48.1658 8.37441 47.9159 8.10621 47.9159 7.37313V6.97977C47.4341 6.81885 46.2384 6.58641 44.8464 6.58641C42.4016 6.58641 41.2237 7.03341 41.2237 7.78437C41.2237 8.33865 41.9376 8.66048 43.2403 8.83928L46.0778 9.21476C49.5042 9.64388 51.3245 10.6809 51.3245 13.1841C51.3245 15.723 48.9153 17.3501 44.6144 17.3501C41.4557 17.3501 38.9216 16.3488 37.9044 15.4191C37.5475 15.0615 37.494 14.6145 37.6903 14.1675Z" fill="black"/>
<path d="M69.0263 17.1352H67.5629C66.8491 17.1352 66.6171 17.0279 66.2602 16.4915L63.5119 12.4328C63.1193 11.8785 62.8159 11.7354 61.995 11.7354H59.2468V16.1339C59.2468 16.8849 58.9791 17.1352 58.2474 17.1352H57.1945C56.445 17.1352 56.1951 16.867 56.1951 16.1339V2.93854H55.2136C54.4641 2.93854 54.2142 2.67034 54.2142 1.93726V1.04327C54.2142 0.292311 54.4819 0.0419922 55.2136 0.0419922H58.2652C59.0148 0.0419922 59.2646 0.310191 59.2646 1.04327V8.76738H61.7273C62.5482 8.76738 62.8338 8.64223 63.2442 8.07007L65.5463 4.51197C65.9211 3.95769 66.1531 3.85041 66.8669 3.85041H68.3303C69.1333 3.85041 69.2761 4.49409 68.83 5.15564L66.2602 9.05346C65.9925 9.42894 65.6713 9.8223 65.3679 10.1441C65.6891 10.4123 66.1352 10.8593 66.3137 11.1275L69.5259 15.8657C69.9721 16.4915 69.8115 17.1352 69.0263 17.1352Z" fill="black"/>
<path d="M74.248 19.5667V18.6906C74.248 17.9396 74.5157 17.6893 75.2474 17.6893H76.5144C77.2818 17.6893 77.6565 17.5284 77.9421 16.9205L78.1027 16.5808L72.0351 5.084C71.6603 4.38668 71.9637 3.86816 72.7489 3.86816H74.1231C74.8369 3.86816 75.1581 3.99332 75.4258 4.51184L77.9599 9.73277C78.5488 10.9307 79.2091 12.3075 79.7267 13.5054C80.262 12.3432 80.8688 11.0022 81.4399 9.84005L84.0275 4.51184C84.2595 4.0112 84.6164 3.86816 85.3302 3.86816H86.7044C87.5074 3.86816 87.793 4.40456 87.4182 5.084L80.5119 18.2257C79.7088 19.7455 78.7987 20.5859 76.7286 20.5859H75.2117C74.4978 20.5859 74.248 20.3177 74.248 19.5667Z" fill="black"/>
<path d="M106.08 10.5021C106.08 14.7218 102.957 17.3501 98.7456 17.3501C96.9253 17.3501 95.5333 16.9031 94.5518 16.3488V19.9606C94.5518 20.7115 94.2841 20.9619 93.5524 20.9619H92.4995C91.75 20.9619 91.5002 20.6937 91.5002 19.9606V6.76521H90.5187C89.7691 6.76521 89.5193 6.49701 89.5193 5.76394V4.86994C89.5193 4.11899 89.787 3.86867 90.5187 3.86867H93.0884C93.838 3.86867 94.0878 4.13687 94.0878 4.86994V4.94146C95.0872 4.27991 96.6041 3.63623 98.7456 3.63623C102.957 3.65411 106.08 6.28246 106.08 10.5021ZM102.904 10.5021C102.904 8.03469 100.923 6.65793 98.46 6.65793C96.6933 6.65793 95.2478 7.40889 94.5696 8.01681V13.0053C95.2656 13.6132 96.6933 14.3642 98.46 14.3642C100.923 14.3463 102.904 12.9695 102.904 10.5021Z" fill="black"/>
<path d="M122.705 9.46527C122.705 10.2162 122.438 10.4665 121.706 10.4665H120.653C119.904 10.4665 119.654 10.252 119.654 9.46527C119.654 7.49848 118.904 6.62236 117.12 6.62236C115.424 6.62236 114.014 7.67728 113.229 8.96463V16.1345C113.229 16.8854 112.961 17.1357 112.23 17.1357H111.177C110.427 17.1357 110.178 16.8675 110.178 16.1345V6.7654H109.196C108.446 6.7654 108.197 6.4972 108.197 5.76413V4.87013C108.197 4.11917 108.464 3.86886 109.196 3.86886H111.766C112.515 3.86886 112.765 4.13705 112.765 4.87013V5.72837C113.711 4.67345 115.157 3.6543 117.619 3.6543C121.224 3.6543 122.705 5.79989 122.705 9.46527Z" fill="black"/>
<path d="M124.6 10.5023C124.6 6.56872 127.919 3.6543 132.327 3.6543C136.699 3.6543 140.001 6.56872 140.001 10.5023C140.001 14.4538 136.681 17.3682 132.327 17.3682C127.919 17.3682 124.6 14.4538 124.6 10.5023ZM136.967 10.5023C136.967 8.21367 134.95 6.55084 132.327 6.55084C129.65 6.55084 127.634 8.23155 127.634 10.5023C127.634 12.8088 129.65 14.4895 132.327 14.4895C134.968 14.4895 136.967 12.8088 136.967 10.5023Z" fill="black"/>
<defs>
<filter id="filter0_f_6_2059" x="-8.92884" y="-8.92799" width="36.8211" height="38.857" filterUnits="userSpaceOnUse" color-interpolation-filters="sRGB">
<feFlood flood-opacity="0" result="BackgroundImageFix"/>
<feBlend mode="normal" in="SourceGraphic" in2="BackgroundImageFix" result="shape"/>
<feGaussianBlur stdDeviation="4.46473" result="effect1_foregroundBlur_6_2059"/>
</filter>
</defs>
</svg>
