<svg width="114" height="18" viewBox="0 0 114 18" fill="none" xmlns="http://www.w3.org/2000/svg">
<path d="M3.19264 17.2938C1.36821 18.3477 0.0576172 17.4695 0.0576172 15.9074C0.0576172 14.2446 0.0576172 9.25511 0.0576172 9.25511C0.0576172 9.25511 0.0576172 4.26567 0.0576172 2.60279C0.0576172 1.04075 1.3674 0.162553 3.19264 1.21639C6.03415 2.85731 14.5579 7.7817 14.5579 7.7817C15.6912 8.43628 15.6912 10.0731 14.5579 10.7277C14.5579 10.7285 6.03415 15.6529 3.19264 17.2938Z" fill="#00C1FF"/>
<path d="M12.5745 17.2929C10.75 18.3467 9.43945 17.4685 9.43945 15.9064C9.43945 14.2436 9.43945 9.25413 9.43945 9.25413C9.43945 9.25413 9.43945 4.26469 9.43945 2.60182C9.43945 1.03977 10.7492 0.161576 12.5745 1.21541C15.3534 2.82055 23.6901 7.63679 23.6901 7.63679C24.9349 8.35561 24.9349 10.1527 23.6901 10.8715C23.6893 10.8715 15.3534 15.6877 12.5745 17.2929Z" fill="#BCEC30"/>
<mask id="mask0_6_5" style="mask-type:alpha" maskUnits="userSpaceOnUse" x="9" y="0" width="16" height="18">
<path d="M12.5745 17.2929C10.75 18.3467 9.43945 17.4685 9.43945 15.9064C9.43945 14.2436 9.43945 9.25413 9.43945 9.25413C9.43945 9.25413 9.43945 4.26469 9.43945 2.60182C9.43945 1.03977 10.7492 0.161576 12.5745 1.21541C15.3534 2.82055 23.6901 7.63679 23.6901 7.63679C24.9349 8.35561 24.9349 10.1527 23.6901 10.8715C23.6893 10.8715 15.3534 15.6877 12.5745 17.2929Z" fill="#6FE4FF"/>
</mask>
<g mask="url(#mask0_6_5)">
<g filter="url(#filter0_f_6_5)">
<path d="M3.19313 17.2938C1.3687 18.3477 0.0581055 17.4695 0.0581055 15.9074C0.0581055 14.2446 0.0581055 9.25511 0.0581055 9.25511C0.0581055 9.25511 0.0581055 4.26567 0.0581055 2.60279C0.0581055 1.04075 1.36789 0.162553 3.19313 1.21639C6.03464 2.85731 14.5584 7.7817 14.5584 7.7817C15.6917 8.43628 15.6917 10.0731 14.5584 10.7277C14.5584 10.7285 6.03464 15.6529 3.19313 17.2938Z" fill="#99D100"/>
</g>
</g>
<path d="M30.5687 12.2236L30.8865 11.4998C31.1032 11.0077 31.4933 10.8775 31.9845 11.2393C32.9235 11.9341 34.4693 12.4407 36.5352 12.4407C38.2977 12.4407 39.0489 11.992 39.0489 11.4564C39.0489 10.8485 38.4277 10.6893 37.402 10.559L35.0616 10.2551C32.2445 9.87873 30.8287 8.86554 30.8287 7.09968C30.8287 5.20356 32.3745 3.69824 35.9573 3.69824C37.9509 3.69824 39.2367 4.0022 40.0746 4.32063C40.9992 4.68249 41.1292 4.98645 41.1292 5.73911V6.72335C41.1292 7.33127 40.9125 7.53391 40.3202 7.53391H39.6556C39.0489 7.53391 38.8466 7.3168 38.8466 6.72335V6.40492C38.4566 6.27465 37.4886 6.08649 36.3618 6.08649C34.3826 6.08649 33.4291 6.44834 33.4291 7.05626C33.4291 7.50496 34.007 7.7655 35.0616 7.91024L37.3586 8.2142C40.1324 8.56158 41.6059 9.40108 41.6059 11.4275C41.6059 13.4828 39.6556 14.8 36.174 14.8C33.6169 14.8 31.5655 13.9894 30.7421 13.2367C30.4531 12.9473 30.4098 12.5854 30.5687 12.2236Z" fill="white"/>
<path d="M55.936 14.6264H54.7514C54.1735 14.6264 53.9857 14.5396 53.6968 14.1053L51.472 10.8197C51.1542 10.371 50.9086 10.2552 50.244 10.2552H48.0193V13.8158C48.0193 14.4238 47.8026 14.6264 47.2102 14.6264H46.3579C45.7511 14.6264 45.5489 14.4093 45.5489 13.8158V3.13388H44.7543C44.1476 3.13388 43.9453 2.91677 43.9453 2.32333V1.59962C43.9453 0.991701 44.162 0.789062 44.7543 0.789062H47.2247C47.8315 0.789062 48.0337 1.00618 48.0337 1.59962V7.85248H50.0273C50.6919 7.85248 50.923 7.75116 51.2553 7.28798L53.1189 4.40761C53.4223 3.95891 53.6101 3.87207 54.188 3.87207H55.3726C56.0227 3.87207 56.1383 4.39314 55.7771 4.92869L53.6968 8.08406C53.4801 8.38802 53.22 8.70645 52.9744 8.96699C53.2345 9.1841 53.5957 9.54596 53.7401 9.76307L56.3405 13.5987C56.7017 14.1053 56.5717 14.6264 55.936 14.6264Z" fill="white"/>
<path d="M60.1634 16.5951V15.8858C60.1634 15.2779 60.3801 15.0753 60.9724 15.0753H61.9981C62.6193 15.0753 62.9227 14.945 63.1538 14.4529L63.2838 14.1779L58.372 4.87097C58.0686 4.30647 58.3142 3.88672 58.9499 3.88672H60.0622C60.6401 3.88672 60.9001 3.98804 61.1168 4.40779L63.1683 8.63426C63.645 9.60403 64.1795 10.7185 64.5985 11.6883C65.0319 10.7475 65.5231 9.66193 65.9854 8.7211L68.0801 4.40779C68.2679 4.00251 68.5569 3.88672 69.1347 3.88672H70.2471C70.8972 3.88672 71.1284 4.32095 70.825 4.87097L65.2341 15.5095C64.584 16.7398 63.8473 17.4201 62.1715 17.4201H60.9435C60.3656 17.4201 60.1634 17.203 60.1634 16.5951Z" fill="white"/>
<path d="M85.9318 9.25634C85.9318 12.6723 83.4037 14.8 79.9943 14.8C78.5207 14.8 77.3939 14.4381 76.5993 13.9894V16.9132C76.5993 17.5211 76.3826 17.7238 75.7903 17.7238H74.938C74.3312 17.7238 74.129 17.5066 74.129 16.9132V6.23123H73.3344C72.7276 6.23123 72.5254 6.01412 72.5254 5.42067V4.69696C72.5254 4.08905 72.7421 3.88641 73.3344 3.88641H75.4147C76.0215 3.88641 76.2237 4.10352 76.2237 4.69696V4.75486C77.0327 4.21931 78.2607 3.69824 79.9943 3.69824C83.4037 3.71272 85.9318 5.84043 85.9318 9.25634ZM83.3603 9.25634C83.3603 7.2589 81.7568 6.14438 79.7631 6.14438C78.3329 6.14438 77.1628 6.7523 76.6138 7.24442V11.2827C77.1772 11.7749 78.3329 12.3828 79.7631 12.3828C81.7568 12.3683 83.3603 11.2538 83.3603 9.25634Z" fill="white"/>
<path d="M99.3906 8.41799C99.3906 9.0259 99.1739 9.22854 98.5816 9.22854H97.7292C97.1225 9.22854 96.9202 9.05485 96.9202 8.41799C96.9202 6.82582 96.3135 6.11659 94.8688 6.11659C93.4964 6.11659 92.3551 6.97056 91.7195 8.01271V13.8169C91.7195 14.4248 91.5028 14.6274 90.9104 14.6274H90.0581C89.4513 14.6274 89.2491 14.4103 89.2491 13.8169V6.23238H88.4545C87.8478 6.23238 87.6455 6.01527 87.6455 5.42182V4.69811C87.6455 4.0902 87.8622 3.88756 88.4545 3.88756H90.5348C91.1416 3.88756 91.3438 4.10467 91.3438 4.69811V5.39288C92.1095 4.5389 93.2797 3.71387 95.2733 3.71387C98.1915 3.71387 99.3906 5.45077 99.3906 8.41799Z" fill="white"/>
<path d="M100.924 9.25749C100.924 6.07316 103.611 3.71387 107.179 3.71387C110.719 3.71387 113.391 6.07316 113.391 9.25749C113.391 12.4563 110.704 14.8156 107.179 14.8156C103.611 14.8156 100.924 12.4563 100.924 9.25749ZM110.935 9.25749C110.935 7.40479 109.303 6.05869 107.179 6.05869C105.012 6.05869 103.38 7.41927 103.38 9.25749C103.38 11.1247 105.012 12.4852 107.179 12.4852C109.317 12.4852 110.935 11.1247 110.935 9.25749Z" fill="white"/>
<defs>
<filter id="filter0_f_6_5" x="-8.87135" y="-8.17359" width="33.209" height="34.857" filterUnits="userSpaceOnUse" color-interpolation-filters="sRGB">
<feFlood flood-opacity="0" result="BackgroundImageFix"/>
<feBlend mode="normal" in="SourceGraphic" in2="BackgroundImageFix" result="shape"/>
<feGaussianBlur stdDeviation="4.46473" result="effect1_foregroundBlur_6_5"/>
</filter>
</defs>
</svg>
